<svg width="65" height="61" viewBox="0 0 65 61" fill="none" xmlns="http://www.w3.org/2000/svg">
<path d="M64.9984 47.8955C64.979 47.7664 64.9629 47.6374 64.9452 47.5068C64.9081 47.2278 64.871 46.9408 64.8146 46.6586C63.9631 42.3933 61.5362 39.4181 57.6031 37.8168C57.1193 37.6201 56.6243 37.4604 56.1244 37.3314C56.1292 33.3613 56.1292 29.3927 56.1276 25.4225C56.1276 23.7374 55.3326 22.9343 53.6603 22.9327C50.9044 22.9295 48.1485 22.9311 45.3927 22.9311H44.6605V22.1071C44.6605 17.6209 44.6605 13.1331 44.6605 8.64689C44.6605 6.53441 44.6686 4.42193 44.6573 2.30945C44.6509 0.90812 43.8252 0.00991348 42.4981 0.0083009C35.6382 -0.00298715 28.7783 -0.00782489 21.9183 0.0276519C21.4201 0.030877 20.8282 0.253413 20.4428 0.572704C17.7385 2.82064 15.0778 5.12501 12.3928 7.40198C11.7672 7.93251 11.4801 8.56787 11.4833 9.40157C11.5043 13.6668 11.493 17.9321 11.493 22.199V22.9376C11.0786 22.9376 10.7416 22.8731 10.4432 22.9521C9.93365 23.0875 9.35312 23.2004 8.96772 23.5197C6.26342 25.7693 3.60105 28.0736 0.91611 30.349C0.288816 30.8811 0.0130654 31.5197 0.014678 32.3518C0.0324163 38.9924 0.0614428 45.6314 0.00016475 52.2704C-0.0143485 53.9313 0.930623 54.9053 2.5948 54.8908C8.97094 54.8344 15.3487 54.8747 21.7264 54.8569C22.4166 54.8553 23.1068 54.7021 23.797 54.6247C23.8921 54.6134 23.9921 54.628 24.0873 54.6409C24.6178 54.715 25.1483 54.8553 25.6789 54.8569C31.5196 54.8699 37.362 54.8634 43.2028 54.8731C43.2108 54.8844 43.2157 54.8973 43.2237 54.9086C44.904 57.6386 47.5261 59.5205 50.6045 60.2059C50.9673 60.2865 51.3398 60.3349 51.6994 60.3816C51.8736 60.4042 52.0494 60.4268 52.2235 60.4542C52.2574 60.4591 52.2896 60.4687 52.3219 60.4784C52.3413 60.4832 52.3622 60.4897 52.3816 60.4945L54.0635 60.4994L54.0748 60.4978C54.2038 60.4784 54.3344 60.4607 54.4634 60.4429C54.7392 60.4058 55.0246 60.3655 55.3052 60.3155C57.8224 59.8705 60.0026 58.6933 61.7845 56.8146C63.41 55.1037 64.4404 53.0363 64.8468 50.6691C64.8903 50.4175 64.9226 50.1627 64.9532 49.9144C64.9678 49.7999 64.9823 49.6838 64.9984 49.5693L65 47.9164L64.9984 47.8955ZM59.693 40.9952L56.4082 44.2817C56.3324 44.2397 56.255 44.1946 56.176 44.1494C55.9018 43.993 55.6196 43.8301 55.3165 43.7027C55.0165 43.577 54.6972 43.4867 54.3892 43.398C54.2892 43.3689 54.1877 43.3415 54.0877 43.3109V38.6925C56.1873 38.8763 58.0724 39.6503 59.693 40.9952ZM54.0893 26.0837V36.9928C51.9881 36.8332 49.8611 37.2428 47.9389 38.2151C47.9034 38.2329 47.8696 38.2522 47.8357 38.2716C47.847 36.4139 47.8631 34.5836 47.8018 32.7582C47.768 31.7793 48.0453 31.1569 48.8178 30.5473C50.5948 29.1395 52.2864 27.6221 54.0893 26.0837ZM48.7742 45.4927C48.7194 45.5991 48.663 45.7056 48.6081 45.812C48.4356 46.1393 48.2582 46.4796 48.1098 46.8263C47.9937 47.1004 47.9309 47.3923 47.8696 47.6761L47.8309 47.8535C47.826 47.8729 47.8228 47.8858 47.8196 47.8955C47.8164 47.8955 47.8083 47.8955 47.8067 47.8955C46.7198 47.8922 45.6329 47.8922 44.546 47.8922L43.2044 47.8906C43.1109 46.4667 44.3638 43.4254 45.5297 42.2466L48.7742 45.4927ZM46.7617 41.0114C48.3775 39.6648 50.2691 38.8844 52.3896 38.6925V43.306C52.2897 43.3351 52.1913 43.3625 52.0913 43.3899C51.7801 43.4754 51.4592 43.5641 51.1544 43.6898C50.8464 43.8156 50.5561 43.9785 50.2772 44.1349C50.1933 44.1817 50.1094 44.2284 50.0256 44.2736L46.7617 41.0114ZM44.8718 24.8662C47.3406 24.9323 49.8127 24.8872 52.4574 24.8872C52.1187 25.1871 51.893 25.3935 51.6591 25.5919C50.1449 26.8835 48.621 28.1639 47.1197 29.4701C46.6843 29.8491 46.2876 30.0458 45.6474 30.0168C43.7623 29.9281 41.8692 29.9845 39.9792 29.9845C39.16 29.9845 38.3408 29.9845 37.5217 29.9845C37.5055 29.9426 37.4894 29.8991 37.4733 29.8571C39.031 28.5284 40.6355 27.2496 42.1256 25.8483C42.9415 25.0807 43.7865 24.8372 44.8718 24.8662ZM42.6351 3.13187C42.6545 3.41246 42.6771 3.59629 42.6771 3.78012C42.6787 9.95308 42.6803 16.126 42.6706 22.2974C42.6706 22.536 42.6206 22.865 42.4642 23.0021C40.4823 24.7291 38.4763 26.4304 36.359 28.2381C36.359 27.9462 36.359 27.8108 36.359 27.6737C36.3525 21.3814 36.3445 15.0875 36.3493 8.79524C36.3493 8.64205 36.4348 8.44209 36.5493 8.34372C38.5392 6.62471 40.542 4.92022 42.6351 3.13187ZM35.1754 2.24656C35.3479 2.10465 35.5882 1.96436 35.7978 1.96113C37.4249 1.93856 39.0536 1.94985 40.6807 1.95307C40.7323 1.95307 40.7839 1.98371 40.9177 2.02402C39.7954 2.98512 38.7198 3.90752 37.6442 4.8283C36.8508 5.5072 36.059 6.18932 35.256 6.85854C35.1125 6.97787 34.919 7.11332 34.748 7.11332C33.2644 7.10687 31.7793 7.0714 30.2957 7.04237C30.1038 7.03915 29.9135 7.02463 29.5942 7.01012C30.7682 6.00548 31.8454 5.08147 32.9226 4.15908C33.6708 3.51727 34.4142 2.87063 35.1754 2.24656ZM30.8569 1.96275C31.3294 1.90308 31.8147 1.94823 32.2953 1.94823C32.3162 1.98855 32.3372 2.03048 32.3582 2.07079C31.3584 2.92546 30.3586 3.78174 29.3572 4.6364C28.6702 5.22338 27.9494 5.77327 27.306 6.40379C26.7932 6.90691 26.2449 7.13751 25.5354 7.04882C25.2048 7.00689 24.8661 7.04237 24.3598 7.04237C25.0645 6.43443 25.645 5.9313 26.2304 5.4314C27.4511 4.38968 28.6605 3.33505 29.9038 2.32074C30.1554 2.11594 30.5279 2.00467 30.8569 1.96275ZM25.8611 9.03552V12.4816H22.7085V9.03552H25.8611ZM20.5444 2.98673C21.4168 2.16432 22.3231 1.83535 23.5035 1.92727C24.6968 2.0208 25.9046 1.94823 27.106 1.94823L27.2382 2.11917C27.1076 2.19496 26.9593 2.2514 26.8464 2.34815C25.129 3.80431 23.4245 5.27498 21.6958 6.71502C21.4749 6.89885 21.133 7.02141 20.8427 7.02625C19.2398 7.05527 17.6369 7.04076 16.034 7.04076C16.0179 6.99883 16.0018 6.95529 15.984 6.91336C17.5112 5.6104 19.0867 4.36065 20.5444 2.98673ZM8.35171 26.5788C8.77905 26.2127 9.24347 25.8821 9.62726 25.4741C10.1336 24.9372 10.7125 24.7662 11.4527 24.9356V29.9378H4.41863C5.79255 28.7654 7.07294 27.6721 8.35171 26.5788ZM22.2505 52.9364C15.7147 52.9154 9.17896 52.9154 2.64318 52.9348C2.09007 52.9364 1.93848 52.7929 1.9401 52.2333C1.95945 45.6959 1.953 39.1601 1.953 32.6227V31.9906H22.9585V32.6969C22.9585 39.194 22.952 45.6911 22.9714 52.1865C22.9714 52.7493 22.8488 52.938 22.2505 52.9364ZM13.7619 29.9797C13.6829 29.9797 13.6055 29.9587 13.4749 29.941V9.04519H20.6896C20.6896 10.3723 20.6896 11.6753 20.6896 12.9783C20.6896 14.2248 20.9637 14.4973 22.2167 14.4973C23.6648 14.4973 25.1145 14.5005 26.5626 14.4957C27.5221 14.4941 27.8655 14.1522 27.8704 13.1798C27.8768 11.814 27.872 10.4481 27.872 9.04519C28.0768 9.02423 28.2316 8.99682 28.3864 8.9952C30.1973 8.99198 32.0082 9.00649 33.8192 8.98392C34.29 8.97747 34.4384 9.11615 34.4368 9.59992C34.4223 16.2002 34.4239 22.8005 34.432 29.4024C34.432 29.7765 34.3916 29.9894 33.9224 29.9894C27.2011 29.9781 20.4815 29.9829 13.7619 29.9797ZM24.9226 52.888C24.9097 52.6606 24.8903 52.4671 24.8903 52.272C24.8887 45.7152 24.8952 39.1601 24.8774 32.6034C24.8758 32.068 25.0226 31.9261 25.5515 31.9277C32.1066 31.9438 38.6617 31.9438 45.2169 31.9293C45.7297 31.9277 45.9119 32.0438 45.9071 32.5953C45.8829 34.9094 45.8926 37.225 45.8877 39.5391C43.8946 41.1371 42.4529 43.3544 41.8143 45.8813C41.2209 48.2309 41.3741 50.653 42.2288 52.888H24.9226ZM43.1947 49.5741H44.3364C45.4362 49.5741 46.5714 49.5758 47.689 49.5693C47.8196 49.5693 47.8196 49.5677 47.8405 49.6919C47.9744 50.4981 48.2905 51.248 48.7807 51.9221L45.5055 55.1972C44.1477 53.5701 43.3898 51.7269 43.1947 49.5741ZM52.3864 58.7739C50.282 58.5885 48.3969 57.8144 46.7795 56.4728L50.0595 53.1944C50.9302 53.7685 51.4043 53.9378 52.3864 54.141V58.7739ZM53.2169 52.5123C53.2153 52.5123 53.212 52.5123 53.2104 52.5123C51.135 52.509 49.4467 50.8126 49.4467 48.7324C49.4467 47.7245 49.8401 46.7779 50.5529 46.0636C51.264 45.3508 52.2074 44.9589 53.2104 44.9589C53.212 44.9589 53.2137 44.9589 53.2153 44.9589C55.2907 44.9606 56.979 46.657 56.979 48.7388C56.979 49.7483 56.584 50.6965 55.8664 51.4125C55.1552 52.1204 54.2151 52.5123 53.2169 52.5123ZM54.0925 58.7755V54.1281C54.944 53.9829 55.7196 53.6588 56.4033 53.167L59.7027 56.4663C58.0869 57.8096 56.2018 58.5852 54.0925 58.7755ZM60.9621 55.2085L57.6595 51.9043C58.0224 51.3883 58.2852 50.8481 58.4433 50.2966C58.5061 50.0773 58.5594 49.8434 58.6013 49.5983C58.6029 49.5887 58.6045 49.5806 58.6061 49.5741C58.6061 49.5741 58.6061 49.5741 58.6077 49.5741C59.6769 49.5774 60.7476 49.5774 61.8168 49.5774L63.2713 49.579C63.331 51.0642 62.0667 54.141 60.9621 55.2085ZM62.1409 47.8938C60.9927 47.8938 59.8446 47.8922 58.6948 47.8987C58.6384 47.9003 58.6174 47.8938 58.6142 47.8938C58.6126 47.8906 58.6013 47.8729 58.59 47.8051C58.4594 47.0118 58.1546 46.2716 57.6837 45.6056C57.6757 45.5943 57.6692 45.5846 57.6612 45.5733L60.9653 42.2692C62.3086 43.885 63.0843 45.7749 63.2745 47.8938H62.1409Z" fill="white"/>
</svg>
