<svg width="65" height="67" viewBox="0 0 65 67" fill="none" xmlns="http://www.w3.org/2000/svg">
<path d="M21.2937 54.3593C18.8667 56.7864 16.4933 59.1549 13.9688 61.6794C14.3733 62.0205 14.8119 62.3519 15.2067 62.7321C15.7477 63.2487 16.2838 63.7701 16.776 64.3306C17.278 64.9008 17.2195 65.6903 16.7078 66.202C16.196 66.7137 15.426 66.743 14.8314 66.2654C14.7145 66.1679 14.6024 66.0607 14.4952 65.9535C12.2046 63.6629 9.9043 61.3772 7.62836 59.0672C7.36032 58.7942 7.12152 58.4287 7.01917 58.0632C6.86322 57.493 7.20924 56.9033 7.73071 56.6255C8.25218 56.3526 8.85162 56.4111 9.32435 56.8595C10.0749 57.571 10.801 58.3118 11.5272 59.0525C11.6831 59.2134 11.7855 59.4327 11.8781 59.5789C14.3928 57.0641 16.7711 54.681 19.2615 52.1955C19.0519 52.0152 18.7595 51.8007 18.5061 51.5424C15.8256 48.8279 15.8256 44.7731 18.511 42.0585C19.6173 40.9376 20.7333 39.8313 21.8445 38.7202C22.6096 37.955 23.0239 37.8868 23.9401 38.34C30.0369 32.2384 36.1239 26.1513 42.2597 20.0107C41.6359 19.1432 42.0745 18.4463 42.7909 17.7494C44.4284 16.1606 46.0269 14.528 47.6401 12.9148C48.5319 12.023 49.2093 12.023 50.1061 12.9099C51.0028 13.7969 51.0028 13.7969 52.1188 13.2365C55.0137 11.789 57.9086 10.3416 60.8035 8.89415C61.8172 8.38731 62.2314 8.45554 63.0453 9.26942C63.4644 9.68854 63.8884 10.1077 64.3075 10.5317C65.1165 11.3407 65.1848 11.7598 64.6779 12.7735C63.1476 15.8389 61.6125 18.9044 60.0822 21.9698C59.9896 22.1599 59.897 22.3451 59.741 22.6765C60.0871 22.9787 60.4818 23.2808 60.8278 23.6366C61.5004 24.3335 61.5053 25.0792 60.823 25.7663C59.0587 27.5549 57.2799 29.3289 55.4962 31.098C54.8675 31.7218 54.3753 31.7559 53.576 31.3173C47.4695 37.4287 41.3678 43.5303 35.2564 49.6418C35.6999 50.558 35.6317 50.9674 34.8763 51.7325C34.4035 52.2101 33.9308 52.6828 33.4581 53.1604C33.4337 53.1848 33.4288 53.2287 33.385 53.3261C34.8081 53.6088 36.2214 53.8915 37.6347 54.1741C41.4214 54.9344 45.213 55.6947 48.9998 56.4647C49.9209 56.6499 50.4131 57.3371 50.2474 58.1412C50.0866 58.9307 49.3214 59.3644 48.4198 59.1793C43.9216 58.2728 39.4184 57.3712 34.7447 56.4355C34.9786 56.684 35.1053 56.8302 35.2418 56.9618C37.586 59.3108 39.9399 61.6501 42.2743 64.0089C42.5229 64.2575 42.7665 64.5742 42.864 64.9056C43.1125 65.7488 42.4497 66.587 41.5481 66.5919C39.0724 66.6065 36.5966 66.626 34.1258 66.5675C33.7115 66.5578 33.229 66.2361 32.9122 65.9193C29.1791 62.2203 25.4704 58.497 21.7519 54.7785C21.6008 54.642 21.4497 54.5007 21.2937 54.3593ZM44.3358 22.2623C38.2731 28.3249 32.2056 34.3925 26.2063 40.3869C28.5309 42.7116 30.9092 45.0947 33.2339 47.4194C39.2576 41.3909 45.3251 35.3184 51.3634 29.2801C49.0241 26.9457 46.641 24.5674 44.3358 22.2623ZM32.1032 50.6165C29.0329 47.5461 26.0259 44.5489 22.9849 41.5078C22.1759 42.3217 21.3035 43.1843 20.4506 44.0664C18.8765 45.6893 18.8667 47.9555 20.4701 49.5638C25.1243 54.2375 29.7932 58.8966 34.462 63.5557C34.5887 63.6824 34.7691 63.8286 34.9299 63.8286C35.9533 63.853 36.9816 63.8432 38.1269 63.8432C37.9076 63.6044 37.7712 63.4533 37.6298 63.3071C35.0127 60.69 32.3957 58.073 29.7786 55.4559C28.8087 54.486 28.8087 53.8525 29.7932 52.8729C30.5778 52.1029 31.3625 51.3426 32.1032 50.6165ZM45.5055 19.1188C48.5027 22.1209 51.4999 25.123 54.4094 28.0374C55.5157 26.9311 56.6707 25.7712 57.738 24.7039C54.7895 21.7603 51.7874 18.7631 48.8195 15.7951C47.7375 16.8867 46.5874 18.0369 45.5055 19.1188ZM53.1764 15.8292C54.7067 17.3644 56.2175 18.88 57.738 20.4006C57.7721 20.347 57.8355 20.2544 57.8842 20.152C59.1708 17.5837 60.4623 15.0202 61.7294 12.4421C61.8025 12.291 61.7733 12.0035 61.671 11.8719C61.5979 11.7793 61.2957 11.7744 61.1495 11.8426C59.7898 12.5006 58.4398 13.1877 57.0898 13.8652C55.774 14.528 54.4581 15.1908 53.1764 15.8292Z" fill="white"/>
<path d="M32.3031 14.4208C31.6744 13.8165 31.0408 13.217 30.4073 12.6224C31.0701 10.7169 30.4073 8.89907 28.6674 7.86101C28.2434 7.60758 27.8146 7.35903 27.3857 7.11048C26.8593 6.80345 26.333 6.49642 25.8164 6.18451C25.7969 6.16989 25.7628 6.1309 25.7579 6.12116C25.4655 4.44466 24.5298 3.34812 22.98 2.85589C21.0257 2.23695 19.0714 1.62289 17.1123 1.01369L16.084 0.696915C15.2213 0.428871 14.349 0.453238 13.4669 0.779765C12.8869 0.350894 12.229 0.170574 11.5954 0.0146206L11.5223 0L2.82796 0.657927L2.70612 0.765144C2.70612 0.770018 2.70124 0.774891 2.69637 0.779765C0.79082 1.50105 -0.135152 2.95823 0.0159279 5.00024L0.196249 7.35416C0.854175 16.068 1.5121 24.7868 2.18952 33.5055C2.24801 34.2609 2.40396 35.0163 2.63789 35.6937C3.70032 38.7202 6.5757 40.6696 9.69963 40.6696C10.226 40.6696 10.7669 40.616 11.303 40.499C12.8528 40.1628 14.2077 39.3586 15.4553 38.0428C17.4144 35.9764 19.3833 33.9149 21.3571 31.8583L23.9157 29.1827C25.0318 28.0131 28.4335 24.4505 29.5495 23.2809C29.5885 23.2419 29.6226 23.2029 29.6519 23.1639C30.1197 22.6765 30.5876 22.1892 31.0555 21.7018C31.5087 21.2291 31.9619 20.7564 32.4152 20.2836C33.268 19.4015 33.7115 18.3781 33.692 17.3303C33.6677 16.2776 33.1901 15.2736 32.3031 14.4208ZM18.2429 24.007L16.9466 28.1446L16.5957 23.4904L18.2429 24.007ZM15.0605 33.6907C14.8997 35.9618 13.0672 37.9892 10.7913 38.4034C7.75022 38.9541 5.06491 37.1607 4.40698 34.1293C4.37287 33.9685 4.35824 33.7931 4.3485 33.6079L4.33875 33.5055C4.24128 32.2579 4.14868 31.0103 4.05121 29.7627L3.97811 28.7977L14.7145 27.9838L14.7779 28.7831C14.8558 29.8016 14.9338 30.8007 15.002 31.7998L15.0167 32.024C15.0605 32.6039 15.0995 33.1498 15.0605 33.6907ZM14.5293 25.7956L3.8514 26.6095L3.52487 22.2964L14.2028 21.4874L14.5293 25.7956ZM29.3448 14.5719C29.3936 14.6157 29.4423 14.6645 29.491 14.7083L29.7493 14.9569C30.1441 15.3321 30.5437 15.7074 30.9336 16.0875C31.6939 16.8234 31.7329 17.8323 31.0213 18.6071C30.6704 18.9922 30.3098 19.3625 29.9394 19.7524L29.7396 19.962L27.4588 17.7933L29.3448 14.5719ZM20.2947 24.6454L21.5618 20.5955L22.8825 21.3656L20.7918 24.9379L20.2947 24.6454ZM28.3604 11.9694C28.0631 12.5542 27.7268 13.1098 27.3759 13.7044C27.298 13.836 27.22 13.9627 27.1469 14.0943L26.796 13.8896C25.9041 13.3681 25.0318 12.8564 24.1594 12.3398C24.5493 11.058 24.9538 9.78118 25.3583 8.50431L25.3827 8.42146C25.524 8.50431 25.6605 8.58229 25.8018 8.66514C26.4792 9.05502 27.1761 9.45952 27.834 9.89327C28.4968 10.3368 28.7308 11.2481 28.3604 11.9694ZM23.8767 19.4649C23.3212 19.1384 22.7704 18.8216 22.2246 18.4951C22.6096 17.2426 23.0044 15.9949 23.404 14.7229L23.4917 14.45L26.0552 15.9511L23.9693 19.5234L23.8767 19.4649ZM16.0352 16.6334L16.0255 16.4725L16.2984 16.5554C16.352 16.5798 16.4154 16.6041 16.4787 16.6236C16.8004 16.726 18.1601 17.15 19.2615 17.4862C19.6173 17.5934 19.9438 17.6958 20.2021 17.7786L18.8911 21.9601L18.7157 21.9065C17.9262 21.658 17.1561 21.4192 16.391 21.1706C16.2643 19.6696 16.1522 18.1685 16.0352 16.6334ZM15.8549 14.1576C15.7282 12.5981 15.6112 11.0337 15.4943 9.47414V9.45465L22.1466 11.5405L20.8357 15.722C19.8561 15.4199 17.8384 14.796 17.2195 14.606C17.1513 14.5767 17.0782 14.5475 17.0002 14.5231L16.6249 14.4062C16.3666 14.3282 16.1083 14.2502 15.8549 14.1576ZM23.5697 6.91554C23.3943 7.60758 23.1798 8.285 22.9508 9.00141C22.8972 9.16224 22.8484 9.32794 22.7948 9.49364L19.164 8.35323C17.892 7.9536 16.6249 7.55397 15.3042 7.14947L15.2944 7.03251C15.2311 6.07729 15.1726 5.08309 15.0703 4.10839C15.0215 3.6649 14.9387 3.23602 14.8558 2.78766C14.8461 2.73892 14.8363 2.68532 14.8266 2.63658C14.9728 2.63171 15.1336 2.66095 15.3042 2.70968L16.084 2.95336C18.1942 3.60641 20.3775 4.27896 22.5121 4.97588C23.3163 5.23905 23.7793 6.09191 23.5697 6.91554ZM13.2135 8.44096L13.5449 12.8076L11.688 12.949C9.36823 13.1244 6.1712 13.3681 4.68477 13.4802C4.63116 13.4851 4.57755 13.4899 4.55806 13.4948C4.16818 13.524 3.77829 13.5533 3.39329 13.5825L2.85232 13.6215L2.52092 9.25484L13.2135 8.44096ZM14.0273 19.2846L3.34942 20.0936L3.01802 15.7561L5.08927 15.6002C6.46848 15.4978 9.33899 15.2785 11.2007 15.1372L13.6959 14.9471L14.0273 19.2846ZM19.7099 26.7947L19.5149 27.1261L19.6319 26.7508L19.7099 26.7947ZM21.3425 28.2567L23.287 24.9281L24.1838 25.781L21.5959 28.4955L21.3425 28.2567ZM28.258 21.5069C28.0631 21.7018 27.8779 21.8919 27.7268 22.0771L27.3369 22.4865C26.8642 22.9787 26.0991 23.7731 25.6653 24.2215L24.408 23.0226L26.3574 19.6988L28.258 21.5069ZM13.0721 6.27223L2.33573 7.08611L2.31624 6.82782C2.2675 6.20401 2.21876 5.58507 2.1749 4.96613L2.16516 4.80043C2.15053 4.60061 2.13104 4.41542 2.15053 4.25459C2.25775 3.41635 2.87669 2.81203 3.69544 2.7438C6.32228 2.51962 8.73468 2.33929 11.0642 2.18334C11.1032 2.17847 11.1471 2.17847 11.1861 2.17847C12.073 2.17847 12.7895 2.84127 12.8772 3.76237C12.9405 4.45441 12.9893 5.14645 13.0429 5.84824L13.0721 6.27223Z" fill="white"/>
<path d="M11.727 30.6935C11.0593 30.1184 10.2113 29.8407 9.33411 29.9089C7.5504 30.0453 6.19555 31.6 6.31252 33.3788C6.371 34.2463 6.76576 35.0407 7.42856 35.6207C8.03288 36.147 8.78827 36.4345 9.57291 36.4345C9.65089 36.4345 9.72886 36.4297 9.81171 36.4248C11.6149 36.2932 12.9795 34.7239 12.8479 32.9256C12.7894 32.0581 12.3898 31.2637 11.727 30.6935ZM10.6987 33.0864C10.7182 33.3886 10.6207 33.6859 10.416 33.9149C10.2162 34.1391 9.94817 34.2756 9.66064 34.2902C9.05632 34.3097 8.52023 33.8564 8.47149 33.2521C8.44713 32.9451 8.53972 32.6527 8.73466 32.4285C8.92961 32.2043 9.20252 32.0679 9.49981 32.0435C9.52905 32.0435 9.55829 32.0386 9.58753 32.0386C9.85558 32.0386 10.109 32.1312 10.3088 32.3067C10.5379 32.5016 10.6743 32.7794 10.6987 33.0864Z" fill="white"/>
</svg>
