<svg width="65" height="65" viewBox="0 0 65 65" fill="none" xmlns="http://www.w3.org/2000/svg">
<path d="M31.6367 64.9695C30.3675 64.9695 29.0999 64.9695 27.8307 64.9695C27.6476 64.9288 27.468 64.8644 27.2833 64.8508C24.7024 64.6543 22.1961 64.1018 19.7644 63.2274C5.3213 58.0369 -3.00765 42.7939 1.00855 27.5137C5.48568 10.4898 23.8145 1.09325 40.269 7.31921C41.2688 7.6971 42.2415 8.14278 43.221 8.55287C44.6902 6.50071 45.9985 6.0347 48.4184 6.63628C48.5912 6.67865 48.8759 6.52274 49.0267 6.37531C50.5959 4.83662 52.1041 3.23183 53.7174 1.74059C57.1879 -1.4656 62.897 -0.0472162 64.4984 4.39602C64.739 5.062 64.8373 5.78051 65 6.4753C65 6.64475 65 6.81422 65 6.98198C64.9695 7.08196 64.917 7.18025 64.9102 7.28023C64.7712 9.1731 63.8782 10.6711 62.5361 11.9624C61.1973 13.252 59.9077 14.5924 58.5809 15.8956C58.3063 16.165 58.2419 16.387 58.3707 16.7734C58.8435 18.2019 58.5927 19.5339 57.6268 20.6879C57.2811 21.0997 56.8185 21.4132 56.3864 21.7911C56.5185 22.0724 56.6592 22.3757 56.8015 22.6791C58.3945 26.1038 59.3045 29.7066 59.5129 33.472C59.7654 38.0491 59.0791 42.5008 57.2218 46.6966C52.926 56.4016 45.5426 62.3327 35.1361 64.4577C33.9821 64.6966 32.8026 64.8034 31.6367 64.9695ZM35.7072 21.6013C30.4166 19.0323 22.3605 20.1744 17.7936 26.4783C13.2452 32.7568 14.2874 41.4417 20.1897 46.5051C26.0564 51.5381 34.7802 51.1975 40.3317 45.712C45.4121 40.6926 45.5341 33.2889 43.3396 29.2744C43.1719 29.4676 43.0295 29.6523 42.8668 29.815C40.7452 31.9383 38.6151 34.0566 36.4968 36.1833C35.6326 37.0509 34.604 37.5153 33.3754 37.4814C32.1993 37.4509 31.3537 37.7034 30.3607 38.432C29.2067 39.2793 27.6748 39.1556 26.736 38.1406C25.7802 37.1069 25.7717 35.5309 26.7292 34.4497C27.0088 34.1328 27.3443 33.8634 27.6053 33.5347C27.7239 33.3838 27.8205 33.111 27.768 32.9449C27.1986 31.1385 27.6663 29.6439 28.9999 28.3356C31.0979 26.2767 33.1585 24.1822 35.2344 22.1012C35.3937 21.9436 35.5428 21.7758 35.7072 21.6013ZM2.83194 33.7583C2.95903 33.7888 3.03868 33.8227 3.11833 33.8227C6.03473 33.8261 8.94944 33.8227 11.8658 33.8346C12.2454 33.8363 12.3183 33.6431 12.3505 33.3313C12.7098 29.854 14.0332 26.78 16.2379 24.0771C16.326 23.9686 16.387 23.8399 16.4599 23.7212C16.3972 23.7653 16.3328 23.8093 16.2701 23.8534C14.1044 21.6098 11.9387 19.3644 9.74251 17.0903C5.50771 21.8792 3.22678 27.4155 2.83194 33.7583ZM47.9642 55.3696C45.6629 53.1429 43.421 50.9721 41.1316 48.7572C38.3372 51.0924 34.9988 52.4684 31.2368 52.8056C31.2368 55.9525 31.2368 59.0621 31.2368 62.2429C37.6102 61.8819 43.1193 59.6061 47.9642 55.3696ZM47.4219 36.5697C47.0745 40.4063 45.6511 43.7463 43.2447 46.5932C45.4799 48.8454 47.6676 51.0483 49.896 53.292C54.1529 48.5285 56.466 42.9753 56.871 36.5714C53.7004 36.5697 50.5976 36.5697 47.4219 36.5697ZM16.3531 46.5305C13.9655 43.7039 12.6098 40.3334 12.2709 36.5815C9.07823 36.5815 5.97881 36.5815 2.82516 36.5815C3.21492 42.9668 5.46196 48.5234 9.73913 53.353C11.9794 51.0433 14.1536 48.7996 16.3531 46.5305ZM28.439 52.8056C24.6143 52.443 21.2844 51.0433 18.5171 48.6979C16.2667 50.9297 14.0434 53.1344 11.8065 55.3543C16.5226 59.5315 22.047 61.8633 28.4407 62.2412C28.439 59.0519 28.439 55.9542 28.439 52.8056ZM11.7337 15.1076C13.9875 17.3461 16.2023 19.5457 18.4341 21.7623C21.3014 19.3424 24.6685 17.9833 28.4289 17.641C28.4289 14.4704 28.4289 11.3744 28.4289 8.20209C22.0317 8.59354 16.4887 10.8846 11.7337 15.1076ZM62.292 7.08366C62.2429 6.64645 62.2463 6.19399 62.1361 5.77204C61.3464 2.7082 57.6539 1.67958 55.3645 3.9012C53.6072 5.60766 51.8991 7.36496 50.1672 9.09853C49.1657 10.1017 48.881 10.1305 47.6693 9.35611C46.8186 8.81384 45.6595 9.2985 45.624 10.2831C45.6087 10.683 45.8544 11.1863 46.1425 11.4879C47.7659 13.1791 49.4368 14.8229 51.0941 16.4819C51.9601 17.3478 52.8175 18.224 53.7072 19.0662C54.2529 19.583 55.0307 19.5729 55.5441 19.1085C56.0847 18.6205 56.144 17.9121 55.6983 17.2801C54.9781 16.2599 55.0239 15.8024 55.9068 14.9212C57.6692 13.1605 59.4332 11.4015 61.1821 9.62556C61.8667 8.92907 62.3734 8.1377 62.292 7.08366ZM49.6876 19.2475C48.3421 17.8833 47.105 16.6276 45.8561 15.3601C45.7646 15.4465 45.6392 15.5583 45.5206 15.677C42.4025 18.8018 39.2862 21.9283 36.1681 25.0532C34.3786 26.8478 32.584 28.6373 30.7979 30.4369C30.1675 31.0707 30.0438 31.6994 30.5268 32.2959C30.9758 32.8483 31.1385 33.4143 30.9606 33.9431C31.4622 34.0481 31.979 34.0346 32.3569 34.2582C33.5804 34.9818 33.8448 34.9852 34.8616 33.9702C39.6403 29.1897 44.4191 24.4092 49.2013 19.6322C49.3639 19.4678 49.5656 19.3424 49.6876 19.2475ZM31.1843 8.14448C31.1843 11.2219 31.1877 14.2213 31.1809 17.2191C31.1809 17.5698 31.3656 17.6224 31.6571 17.6512C33.6279 17.841 35.5072 18.3765 37.2814 19.2492C37.7254 19.4678 37.9745 19.4034 38.3033 19.0594C39.2489 18.0647 40.2351 17.1072 41.2078 16.1362C42.1331 15.2143 43.06 14.2942 43.9548 13.4062C43.6616 12.8809 43.4295 12.4115 43.1465 11.9743C42.9753 11.7099 42.7686 11.41 42.5025 11.2778C41.4468 10.7542 40.3809 10.2373 39.2811 9.81704C36.7036 8.83248 34.0278 8.29021 31.1843 8.14448ZM56.8134 33.7973C56.8371 33.716 56.8625 33.6736 56.8608 33.6346C56.61 29.6167 55.556 25.8259 53.6343 22.2842C53.5682 22.1622 53.4683 22.0317 53.3496 21.9673C52.804 21.6674 52.2464 21.3878 51.611 21.059C49.6978 22.9892 47.7558 24.9617 45.7951 26.9156C45.5172 27.1918 45.6629 27.3917 45.7782 27.6374C46.6153 29.4066 47.1627 31.2639 47.3423 33.211C47.388 33.7109 47.5439 33.8431 48.0269 33.8397C50.7755 33.8193 53.5242 33.8312 56.2711 33.8278C56.4575 33.8278 56.6422 33.8075 56.8134 33.7973Z" fill="white"/>
</svg>
